<svg width="21" height="20" viewBox="0 0 21 20" fill="none" xmlns="http://www.w3.org/2000/svg">
<path d="M9.15375 10.0008H3.65375M3.56909 10.2923L1.23417 17.267C1.05074 17.8149 0.95902 18.0889 1.02484 18.2576C1.082 18.4041 1.20476 18.5152 1.35625 18.5575C1.53068 18.6061 1.79415 18.4876 2.32108 18.2505L19.0325 10.7303C19.5469 10.4989 19.804 10.3831 19.8835 10.2224C19.9526 10.0827 19.9526 9.91883 19.8835 9.77916C19.804 9.6184 19.5469 9.50268 19.0325 9.27123L2.31525 1.74849C1.78991 1.51209 1.52724 1.39389 1.35298 1.44237C1.20164 1.48448 1.07889 1.59527 1.02153 1.74151C0.955484 1.90991 1.04622 2.18328 1.22769 2.73004L3.56974 9.7863C3.60091 9.8802 3.61649 9.92716 3.62265 9.97518C3.62811 10.0178 3.62805 10.0609 3.62248 10.1035C3.61621 10.1515 3.6005 10.1984 3.56909 10.2923Z" stroke="#2563EB" stroke-width="2" stroke-linecap="round" stroke-linejoin="round"/>
</svg>
